<svg width="138" height="17" version="1.1" xmlns="http://www.w3.org/2000/svg" desc="Created with imagetracer.js version 1.2.6" ><path fill="rgb(0,0,0)" stroke="rgb(0,0,0)" stroke-width="1" opacity="0" d="M 23 0 L 30.5 0 L 31 1.5 L 34.5 4 L 49.5 4 L 52 0 L 61 0 L 61 9.5 L 62.5 11 L 78 11 L 77.5 13 L 64.5 13 L 61 15.5 L 60.5 17 L 51 17 L 52 13 L 31.5 13 L 31 14.5 L 32.5 17 L 14 17 L 14 4 Q 20.5 5.3 23 1.5 L 23 0 Z M 31 6 L 31 9 L 35 11 L 49 11 L 52 9 L 52 6 L 31 6 Z " /><path fill="rgb(0,0,0)" stroke="rgb(0,0,0)" stroke-width="1" opacity="0" d="M 82.5 0 L 91 0 L 91 17 L 82 17 L 82 6 L 66.5 6 L 66 4 L 78.5 4 L 82.5 0 Z " /><path fill="rgb(0,0,0)" stroke="rgb(0,0,0)" stroke-width="1" opacity="0" d="M 95 0 L 116.5 0 L 117 1.5 L 120.5 4 L 135.5 4 L 138 2.5 L 137.5 6 L 118 6 L 118 17 L 109.5 17 L 111 14.5 L 110.5 13 L 95 13 L 95 0 Z " /><path fill="rgb(0,0,0)" stroke="rgb(0,0,0)" stroke-width="1" opacity="0" d="M 0.5 2 Q 2.4 5.8 9 4 L 9 17 L 0 17 L 0.5 2 Z " /><path fill="rgb(0,0,0)" stroke="rgb(0,0,0)" stroke-width="1" opacity="0" d="M 122 11 L 134 11 L 134 17 L 122 17 L 122 11 Z " /><path fill="rgb(228,23,54)" stroke="rgb(228,23,54)" stroke-width="1" opacity="0.7725490196078432" d="M 0 0 L 22.5 0 L 23 1.5 Q 20.5 5.3 14 4 L 14 17 L 9 17 L 9 4 L 2.5 4 L 0 0 Z " /><path fill="rgb(228,23,54)" stroke="rgb(228,23,54)" stroke-width="1" opacity="0.7725490196078432" d="M 31 0 L 51.5 0 L 52 1.5 L 49.5 4 L 34.5 4 L 31 1.5 L 31 0 Z " /><path fill="rgb(228,23,54)" stroke="rgb(228,23,54)" stroke-width="1" opacity="0.7725490196078432" d="M 61 0 L 82 0.5 L 78.5 4 L 66 4 L 66.5 6 L 82 6 L 82 17 L 61.5 17 L 61 15.5 L 64.5 13 L 78 13 L 77.5 11 L 62.5 11 L 61 9.5 L 61 0 Z " /><path fill="rgb(228,23,54)" stroke="rgb(228,23,54)" stroke-width="1" opacity="0.7725490196078432" d="M 91 0 L 95 0.5 L 95 13 L 110.5 13 L 111 14.5 L 108.5 17 L 91 17 L 91 0 Z " /><path fill="rgb(228,23,54)" stroke="rgb(228,23,54)" stroke-width="1" opacity="0.7725490196078432" d="M 117 0 L 137.5 0 L 138 1.5 L 135.5 4 L 120.5 4 L 117 1.5 L 117 0 Z " /><path fill="rgb(228,23,54)" stroke="rgb(228,23,54)" stroke-width="1" opacity="0.7725490196078432" d="M 31 6 L 51.5 6 L 52 8.5 L 48.5 11 L 34.5 11 L 31 8.5 L 31 6 Z " /><path fill="rgb(228,23,54)" stroke="rgb(228,23,54)" stroke-width="1" opacity="0.7725490196078432" d="M 118 6 L 138 6 L 138 17 L 134 17 L 134 11 L 122 11 L 122 17 L 118 17 L 118 6 Z " /><path fill="rgb(228,23,54)" stroke="rgb(228,23,54)" stroke-width="1" opacity="0.7725490196078432" d="M 31 13 L 51.5 13 L 52 14.5 L 51 17 L 33.5 17 L 31 14.5 L 31 13 Z " /></svg>